# xmcd
#
# Track frame offsets: 
#        150
#        20700
#        43300
#        64400
#        89087
#        109275
#        130887
#        148012
#        168312
#        196225
#        211612
#        229450
#        243125
#        264337
#        291200
#
# Disc length: 4279 seconds
#
# Revision: 3
# Processed by: cddbd v1.5.2PL0 Copyright (c) Steve Scherf et al.
# Submitted via: ExactAudioCopy v0.99pb5
#
DISCID=e610b50f
DTITLE=Santana - Santana 2 in 1
DYEAR=1997
DGENRE=Instrumental
TTITLE0=Samba Pa Ti
TTITLE1=Europa (Earth큦 Cry Heavens큦 Smile)
TTITLE2=I Love You Much Too Much
TTITLE3=Aqua Marine
TTITLE4=Bella
TTITLE5=Flor D퀽una (Moonflower)
TTITLE6=Life Is A Lady Holiday
TTITLE7=Full Moon
TTITLE8=Song Of The Wind
TTITLE9=Tales Of Kilimanjaro
TTITLE10=Loves Is You
TTITLE11=Gurus큦 Song
TTITLE12=Treat
TTITLE13=Blues For Salvador
TTITLE14=Soul Sacrifice
EXTD=
EXTT0=
EXTT1=
EXTT2=
EXTT3=
EXTT4=
EXTT5=
EXTT6=
EXTT7=
EXTT8=
EXTT9=
EXTT10=
EXTT11=
EXTT12=
EXTT13=
EXTT14=
PLAYORDER=
